
<svg xmlns="http://www.w3.org/2000/svg" version="1.1" xmlns:xlink="http://www.w3.org/1999/xlink" preserveAspectRatio="none" x="0px" y="0px" width="440px" height="345px" viewBox="0 0 440 345">
<defs>
<g id="Layer1_0_FILL">
<path fill="#F5F5F7" stroke="none" d="
M 440 345.05
L 440 0.05 0 0.05 0 345.05 440 345.05
M 372.45 3.5
L 434.75 3.5 304.8 125.55
Q 268.7 158.5 219.75 158.5 171.1 158.5 134.7 125.55
L 4.75 3.5 67.05 3.5 165.55 95.55
Q 188.6 116.85 219.45 116.85 250.6 116.85 273.35 95.55
L 372.45 3.5
M 435.65 341.5
L 373.25 341.5 274.25 248.25
Q 251.2 227.3 220.35 227.3 189.1 227.3 166.45 248.25
L 66.75 341.5 4.45 341.5 135 219.15
Q 171.1 186.2 220.05 186.2 269 186.2 305.1 219.15
L 435.65 341.5 Z"/>
</g>
</defs>

<g transform="matrix( 1, 0, 0, 1, 0,0) ">
<use xlink:href="#Layer1_0_FILL"/>
</g>
</svg>
